<svg width="19" height="19" viewBox="0 0 19 19" fill="none" xmlns="http://www.w3.org/2000/svg">
<g clip-path="url(#clip0_200_7678)">
<path d="M7.01345 17.3316C7.44371 17.3316 7.79252 16.9828 7.79252 16.5525C7.79252 16.1222 7.44371 15.7734 7.01345 15.7734C6.58318 15.7734 6.23438 16.1222 6.23438 16.5525C6.23438 16.9828 6.58318 17.3316 7.01345 17.3316Z" fill="#D9D9D9" stroke="white" stroke-width="1.67" stroke-linecap="round" stroke-linejoin="round"/>
<path d="M15.5838 17.3316C16.014 17.3316 16.3628 16.9828 16.3628 16.5525C16.3628 16.1222 16.014 15.7734 15.5838 15.7734C15.1535 15.7734 14.8047 16.1222 14.8047 16.5525C14.8047 16.9828 15.1535 17.3316 15.5838 17.3316Z" fill="#D9D9D9" stroke="white" stroke-width="1.67" stroke-linecap="round" stroke-linejoin="round"/>
<path d="M0.78125 0.96875H3.89753L5.98544 11.4005C6.05668 11.7592 6.25181 12.0814 6.53667 12.3107C6.82153 12.54 7.17796 12.6618 7.54358 12.6548H15.1161C15.4818 12.6618 15.8382 12.54 16.1231 12.3107C16.4079 12.0814 16.603 11.7592 16.6743 11.4005L17.9208 4.8641H4.6766" stroke="white" stroke-width="1.67" stroke-linecap="round" stroke-linejoin="round"/>
</g>
<defs>
<clipPath id="clip0_200_7678">
<rect width="18.6977" height="18.6977" fill="white" transform="translate(0 0.1875)"/>
</clipPath>
</defs>
</svg>
