<?xml version="1.0" encoding="UTF-8"?>
<svg id="_Слой_1" xmlns="http://www.w3.org/2000/svg" version="1.1" viewBox="0 0 487.56 94.05">
  <!-- Generator: Adobe Illustrator 29.0.0, SVG Export Plug-In . SVG Version: 2.1.0 Build 186)  -->
  <defs>
    <style>
      .st0 {
        fill: #302876;
      }

      .st1 {
        fill: #e62460;
      }
    </style>
  </defs>
  <rect class="st1" x="1.96" y="80.66" width="16.47" height="2.21"/>
  <rect class="st1" x="74.23" y="80.66" width="15.11" height="2.21"/>
  <g>
    <g>
      <g>
        <polygon class="st0" points="188.25 44.6 188.25 63.9 188.29 63.93 169.11 74.62 149.74 63.92 149.74 11.28 132.82 1.55 132.82 54.33 132.82 73.14 132.82 73.63 169.11 93.92 205.08 73.63 205.08 54.33 188.25 44.6"/>
        <path class="st1" d="M204.96,34.6l.12-.07-.12-18.47v-.49l-25.94-14.02v19.3l8.83,4.77-10.81,5.28c-5.11,2.8-8.25,8.08-8.25,13.86v10.06l35.92-20.08.1-.06.14-.08h0Z"/>
      </g>
      <path class="st0" d="M257.23,36.59c0-5.71-3.6-8.88-9.73-8.88h-12.06c-.63,0-.85.21-.85.85v30.25c0,.63.21.85.85.85h12.27c6.98,0,10.79-3.6,10.79-9.73,0-3.38-1.48-5.92-4.44-7.19,2.12-1.48,3.17-3.38,3.17-6.13v-.02ZM241.79,53.08v-7.4h5.29c2.96,0,4.23,1.48,4.23,3.6,0,2.54-1.69,3.81-4.02,3.81h-5.5,0ZM250.04,37.01c0,2.12-1.27,3.17-3.38,3.17h-4.86v-6.13h4.86c2.12-.21,3.38.85,3.38,2.96Z"/>
      <path class="st0" d="M282.19,45.26c0-6.77-4.44-9.52-9.94-9.52s-10.36,2.75-10.36,9.52v5.5c0,6.13,4.65,9.31,10.36,9.31,3.81,0,6.77-1.27,9.09-2.96.42-.21.42-.63.21-1.06l-2.33-2.96c-.21-.42-.63-.42-1.06-.21-1.69.85-3.38,1.69-5.71,1.69s-3.81-1.06-3.81-3.38v-.63h12.48c.63,0,.85-.21.85-.85v-4.44h.22ZM275.84,44.83v.85h-6.77v-.85c0-2.54,1.48-3.6,3.38-3.6,1.9.21,3.38,1.27,3.38,3.6h0Z"/>
      <path class="st0" d="M286.84,37.43c-.42.21-.63.42-.63.85v28.76c0,.63.21.85.85.85h5.29c.42,0,.85-.21.85-.85v-7.83c1.06.42,2.54.85,4.02.85,5.71,0,9.73-3.81,9.73-9.73v-4.44c0-6.35-4.23-10.15-10.58-10.15-3.17,0-6.77.63-9.52,1.69h-.01ZM296.15,54.14c-1.27,0-2.33-.21-3.17-.85v-11c.85-.21,1.9-.42,2.96-.42,2.33,0,3.81,1.06,3.81,3.81v4.65c.21,2.54-1.27,3.81-3.6,3.81h0Z"/>
      <path class="st0" d="M328.72,57.53c.42-.21.42-.63.21-1.06l-2.33-3.6c-.21-.42-.63-.42-1.06-.21-1.27.85-2.75,1.27-4.23,1.27-2.33,0-3.81-1.27-3.81-3.6v-5.08c0-2.33,1.48-3.6,3.81-3.6,1.27,0,2.54.42,3.81,1.06.42.21.85.21,1.06-.21l2.33-3.6c.21-.42.21-.85-.21-1.06-2.33-1.48-4.65-2.12-7.19-2.12-6.56,0-10.58,3.81-10.58,9.52v5.08c0,5.92,3.81,9.73,10.58,9.73,2.75,0,5.29-.85,7.61-2.54v.02Z"/>
      <path class="st0" d="M342.47,59.43c.42,0,.85-.21.85-.85v-16.29h5.5c.63,0,.85-.21.85-.85v-4.44c0-.42-.21-.85-.85-.85h-17.77c-.42,0-.85.21-.85.85v4.44c0,.63.21.85.85.85h5.5v16.5c0,.63.21.85.85.85h5.08v-.21h-.01Z"/>
      <path class="st0" d="M352.2,38.07c-.21.21-.21.63,0,1.06l1.9,3.38c.21.42.63.42,1.06.21,1.27-.63,3.6-1.27,5.5-1.27,2.96,0,3.81,1.27,3.81,3.6v.42c-1.06-.21-2.33-.21-3.81-.21-6.13,0-9.73,2.33-9.73,6.98,0,5.29,4.02,7.61,10.36,7.61,2.96,0,6.56-.42,9.09-1.27.42-.21.63-.42.63-.85v-12.27c0-6.77-3.6-9.94-9.73-9.94-3.81.21-7.19,1.27-9.09,2.54h.01ZM357.7,52.24c0-1.48,1.06-2.33,3.6-2.33,1.06,0,2.12,0,2.96.21v3.81c-.85.21-1.9.42-2.96.42-2.33.21-3.6-.63-3.6-2.12h0Z"/>
      <path class="st0" d="M395.77,59.43c.63,0,.85-.42.42-.85l-8.04-12.06,7.19-9.09c.42-.42.21-.85-.42-.85h-5.92c-.42,0-.63.21-.85.42l-5.92,8.25v-7.83c0-.63-.21-.85-.85-.85h-5.08c-.63,0-.85.21-.85.85v21.57c0,.63.21.85.85.85h5.08c.42,0,.85-.21.85-.85v-5.92l1.48-1.69,5.08,7.83c.21.42.42.63.85.63h6.13v-.42h0Z"/>
      <path class="st0" d="M418.19,50.55v-5.29c0-5.92-4.02-9.52-10.58-9.52s-10.58,3.6-10.58,9.52v5.29c0,5.92,4.02,9.52,10.58,9.52s10.58-3.6,10.58-9.52ZM404.02,50.55v-5.29c0-2.33,1.27-3.6,3.6-3.6s3.6,1.27,3.6,3.6v5.29c0,2.12-1.27,3.38-3.6,3.38s-3.6-1.06-3.6-3.38Z"/>
      <path class="st1" d="M439.76,67.89c.42,0,.85-.21.85-.85v-7.61h2.75c4.65,0,9.52-2.96,9.52-9.73v-3.6c0-6.77-4.44-9.73-9.52-9.73h-2.75v-7.83c0-.63-.21-.85-.85-.85h-5.08c-.42,0-.85.21-.85.85v7.83h-2.54c-5.08,0-9.73,2.96-9.73,9.73v3.6c0,6.77,4.65,9.73,9.52,9.73h2.75v7.61c0,.42.21.85.85.85h5.08ZM428.34,49.7v-3.6c0-2.54,1.27-3.81,3.6-3.81h1.9v11.21h-1.69c-2.54,0-3.81-1.06-3.81-3.81h0ZM440.61,53.51v-11.21h1.9c2.33,0,3.6,1.27,3.6,3.81v3.6c0,2.75-1.27,3.81-3.81,3.81h-1.69Z"/>
      <path class="st1" d="M474.45,67.89c.42,0,.85-.21.85-.85v-7.61h2.75c4.65,0,9.52-2.96,9.52-9.73v-3.6c0-6.77-4.44-9.73-9.52-9.73h-2.54v-7.83c0-.63-.21-.85-.85-.85h-5.08c-.42,0-.85.21-.85.85v7.83h-2.75c-5.08,0-9.73,2.96-9.73,9.73v3.6c0,6.77,4.65,9.73,9.52,9.73h2.75v7.61c0,.42.21.85.85.85h5.08ZM463.03,49.7v-3.6c0-2.54,1.27-3.81,3.6-3.81h1.9v11.21h-1.9c-2.33,0-3.6-1.06-3.6-3.81h0ZM475.08,53.51v-11.21h1.9c2.33,0,3.6,1.27,3.6,3.81v3.6c0,2.75-1.27,3.81-3.81,3.81h-1.69Z"/>
    </g>
    <rect class="st0" x="112.77" y=".49" width="2" height="92.5"/>
    <g>
      <path class="st0" d="M41.87,47.86v9.37H4.32v-7.45l19.16-18.1c2.03-1.94,3.41-3.61,4.12-5,.71-1.4,1.06-2.78,1.06-4.15,0-1.99-.67-3.51-2.02-4.58s-3.33-1.6-5.93-1.6c-2.18,0-4.14.41-5.89,1.24s-3.22,2.07-4.4,3.73L2.05,15.92c1.94-2.89,4.61-5.15,8.02-6.78,3.41-1.63,7.31-2.45,11.71-2.45,3.69,0,6.92.6,9.69,1.81,2.77,1.21,4.92,2.91,6.46,5.11,1.54,2.2,2.31,4.79,2.31,7.77,0,2.7-.57,5.23-1.7,7.59-1.14,2.37-3.34,5.06-6.6,8.09l-11.43,10.79h21.36,0Z"/>
      <path class="st0" d="M56.77,55.03c-3.22-2.03-5.74-4.98-7.56-8.84s-2.73-8.46-2.73-13.81.91-9.95,2.73-13.8c1.82-3.86,4.34-6.8,7.56-8.84,3.22-2.03,6.88-3.05,11-3.05s7.78,1.02,11,3.05c3.22,2.03,5.74,4.98,7.56,8.84s2.73,8.46,2.73,13.8-.91,9.95-2.73,13.81-4.34,6.8-7.56,8.84-6.88,3.05-11,3.05-7.78-1.02-11-3.05ZM74.91,44.45c1.73-2.6,2.59-6.62,2.59-12.07s-.86-9.46-2.59-12.07c-1.73-2.6-4.11-3.9-7.13-3.9s-5.34,1.3-7.06,3.9c-1.73,2.6-2.59,6.63-2.59,12.07s.86,9.46,2.59,12.07c1.73,2.6,4.08,3.9,7.06,3.9s5.41-1.3,7.13-3.9Z"/>
    </g>
    <g>
      <path class="st1" d="M38.49,73.14v17.23h-3.94v-13.98h-5.91l-.12,3.59c-.08,2.45-.28,4.43-.59,5.94-.31,1.52-.83,2.68-1.56,3.5-.73.81-1.75,1.22-3.06,1.22-.54,0-1.2-.09-1.97-.27l.25-3.37c.21.07.45.1.71.1.95,0,1.62-.56,1.99-1.69.38-1.12.62-2.88.71-5.28l.25-6.99h13.24Z"/>
      <path class="st1" d="M56.14,87.17v3.2h-13.34v-17.23h13.02v3.2h-9.06v3.74h8v3.1h-8v3.99s9.38,0,9.38,0Z"/>
      <path class="st1" d="M72.53,76.39h-5.51v13.98h-3.94v-13.98h-5.49v-3.25h14.94v3.25Z"/>
    </g>
  </g>
</svg>