<svg width="21" height="21" viewBox="11 0 21 21" fill="none" xmlns="http://www.w3.org/2000/svg">
<g clip-path="url(#clip0_209_804)">
<path d="M29.3893 16.113L25.6484 13.948V9.63281L29.3893 11.7904V16.113Z" fill="#302876"/>
<path d="M29.3871 11.7891L29.2693 11.8553L21.5078 16.3399V20.6625L29.3871 16.1116V11.7891Z" fill="#302876"/>
<path d="M13.625 0V16.0089L17.3658 18.2696V2.1576L13.625 0Z" fill="#302876"/>
<path d="M21.5117 20.6625L13.625 16.1116V11.7891L21.5117 16.3399V20.6625Z" fill="#302876"/>
<path d="M29.3902 7.46691L23.9336 4.32256V0L29.3902 3.15171V7.46691Z" fill="#E62460"/>
<path d="M29.3871 3.15234L29.2693 3.21862L23.2972 6.66489C22.1926 7.30554 21.5078 8.48375 21.5078 9.76505V12.0184L29.3945 7.46754V3.15234H29.3871Z" fill="#E62460"/>
</g>
</svg>
